<svg xmlns="http://www.w3.org/2000/svg" viewBox="0 0 1170 1014" preserveAspectRatio="xMidYMid" width="1170" height="1014" xmlns:xlink="http://www.w3.org/1999/xlink" style="shape-rendering:auto;display:block;background-position-x:0%;background-position-y:0%;background-size:auto;background-origin:padding-box;background-clip:border-box;background:scroll rgb(15, 61, 105) none  repeat;width:1170px;height:1014px;;animation:none"><g><g><path fill="#05bceb" d="M1170 0L912.573256028035 0C215.94473229424096 0 5.737702088973918 1014 5.737702088973918 1014 L1170 1014 Z" style="fill:rgb(5, 188, 235);;animation:none"></path>
<path fill="rgb(5, 188, 235)" d="M 1170 0 L 912.573 0 C 215.945 0 5.7377 1014 5.7377 1014 L 1170 1014 Z" style="fill:rgb(5, 188, 235);;animation:none"></path>
<path fill="rgb(11, 169, 216)" d="M 1170 0 L 978.072 0 C 345.974 0 25.2896 1014 25.2896 1014 L 1170 1014 Z" style="fill:rgb(11, 169, 216);;animation:none"></path>
<path fill="rgb(16, 151, 196)" d="M 1170 0 L 1018.54 0 C 455.811 0 60.2251 1014 60.2251 1014 L 1170 1014 Z" style="fill:rgb(16, 151, 196);;animation:none"></path>
<path fill="rgb(21, 132, 177)" d="M 1170 0 L 1048.27 0 C 554.298 0 111.467 1014 111.467 1014 L 1170 1014 Z" style="fill:rgb(21, 132, 177);;animation:none"></path>
<path fill="rgb(26, 113, 157)" d="M 1170 0 L 1071.93 0 C 645.123 0 179.694 1014 179.694 1014 L 1170 1014 Z" style="fill:rgb(26, 113, 157);;animation:none"></path>
<path fill="rgb(32, 94, 138)" d="M 1170 0 L 1091.65 0 C 730.273 0 265.449 1014 265.449 1014 L 1170 1014 Z" style="fill:rgb(32, 94, 138);;animation:none"></path>
<path fill="rgb(37, 75, 118)" d="M 1170 0 L 1108.61 0 C 810.978 0 369.188 1014 369.188 1014 L 1170 1014 Z" style="fill:rgb(37, 75, 118);;animation:none"></path>
<path fill="rgb(42, 56, 99)" d="M 1170 0 L 1123.51 0 C 888.063 0 491.304 1014 491.304 1014 L 1170 1014 Z" style="fill:rgb(42, 56, 99);;animation:none"></path>
<path fill="rgb(47, 38, 79)" d="M 1170 0 L 1136.82 0 C 962.116 0 632.145 1014 632.145 1014 L 1170 1014 Z" style="fill:rgb(47, 38, 79);;animation:none"></path>
<path fill="rgb(53, 19, 60)" d="M 1170 0 L 1148.86 0 C 1033.58 0 792.023 1014 792.023 1014 L 1170 1014 Z" style="fill:rgb(53, 19, 60);;animation:none"></path>
<path fill="rgb(58, 0, 40)" d="M 1170 0 L 1159.86 0 C 1102.78 0 971.222 1014 971.222 1014 L 1170 1014 Z" style="fill:rgb(58, 0, 40);;animation:none"></path></g>
<g></g></g><!-- [ldio] generated by https://loading.io --></svg>